<!--?xml version="1.0" encoding="utf-8"?-->
<!-- Generator: Adobe Illustrator 23.0.6, SVG Export Plug-In . SVG Version: 6.00 Build 0)  -->
<svg version="1.1" id="Layer_1" xmlns="http://www.w3.org/2000/svg" xmlns:xlink="http://www.w3.org/1999/xlink" x="0px" y="0px" viewBox="0 0 573.9 378.9" style="" xml:space="preserve">
<style type="text/css">
	.st0{fill:none;stroke:#E7CF8E;stroke-miterlimit:10;}
	.st1{fill:none;stroke:#E8D18F;stroke-width:2;stroke-miterlimit:10;}
	.st2{fill:none;stroke:#E8D18F;stroke-miterlimit:10;}
</style>
<g>
	<g>
		<path class="st0 LpAQbXXD_0" d="M439.7,32.3L520.3,32.3L520.3,145.5"></path>
		<path class="st0 LpAQbXXD_1" d="M423.2,32.3"></path>
		<path class="st0 LpAQbXXD_2" d="M42.2,155.6L42.2,32.3L130.4,32.3"></path>
		<path class="st0 LpAQbXXD_3" d="M42.2,174.1"></path>
		<path class="st0 LpAQbXXD_4" d="M131.2,347L42.2,347L42.2,222.7"></path>
		<path class="st0 LpAQbXXD_5" d="M131.7,347"></path>
		<path class="st0 LpAQbXXD_6" d="M520.3,233.7L520.3,347L439,347"></path>
		<path class="st0 LpAQbXXD_7" d="M520.3,225"></path>
		<path class="st0 LpAQbXXD_8" d="M520.3,213.3"></path>
		<path class="st0 LpAQbXXD_9" d="M520.3,145.5"></path>
		<path class="st0 LpAQbXXD_10" d="M432,21.5L499.4,21.5L499.4,116.3"></path>
		<path class="st0 LpAQbXXD_11" d="M416.1,21.5"></path>
		<path class="st0 LpAQbXXD_12" d="M291.3,21.5"></path>
		<path class="st0 LpAQbXXD_13" d="M238.9,21.5"></path>
		<path class="st0 LpAQbXXD_14" d="M60.8,129.7L60.8,21.5L138.2,21.5"></path>
		<path class="st0 LpAQbXXD_15" d="M139.5,357.8L60.8,357.8L60.8,248.7"></path>
		<path class="st0 LpAQbXXD_16" d="M196.6,357.8"></path>
		<path class="st0 LpAQbXXD_17" d="M499.4,263.1L499.4,357.8L431.3,357.8"></path>
		<path class="st0 LpAQbXXD_18" d="M499.4,263.1"></path>
		<path class="st0 LpAQbXXD_19" d="M499.4,258.2"></path>
		<path class="st0 LpAQbXXD_20" d="M499.4,250"></path>
		<path class="st0 LpAQbXXD_21" d="M464.2,50.4L531.1,50.4L531.1,160.6"></path>
		<path class="st0 LpAQbXXD_22" d="M31.4,170.7L31.4,50.4L117.5,50.4"></path>
		<path class="st0 LpAQbXXD_23" d="M118.2,328.9L31.4,328.9L31.4,207.6"></path>
		<path class="st0 LpAQbXXD_24" d="M452.3,328.9"></path>
		<path class="st0 LpAQbXXD_25" d="M531.1,218.8L531.1,328.9L452.3,328.9"></path>
		<path class="st0 LpAQbXXD_26" d="M531.1,217"></path>
		<path class="st0 LpAQbXXD_27" d="M531.1,160.6"></path>
		<path class="st0 LpAQbXXD_28" width="21.6" height="21.6" d="M509.5 21.5 L531.1 21.5 L531.1 43.1 L509.5 43.1 Z"></path>
		<path class="st0 LpAQbXXD_29" width="21.6" height="21.6" d="M509.5 336.2 L531.1 336.2 L531.1 357.8 L509.5 357.8 Z"></path>
		<path class="st0 LpAQbXXD_30" width="21.6" height="21.6" d="M31.4 21.5 L53 21.5 L53 43.1 L31.4 43.1 Z"></path>
		<path class="st0 LpAQbXXD_31" width="21.6" height="21.6" d="M31.4 336.2 L53 336.2 L53 357.8 L31.4 357.8 Z"></path>
	</g>
	<path class="st1 LpAQbXXD_32" d="M135.3,9.4L434.8,9.4L563.5,189.2L434.8,368.9L135.3,368.9L6.7,189.2Z"></path>
	<path class="st2 LpAQbXXD_33" d="M521,145.9L551.9,189.2L429.5,360.2L140.6,360.2L18.2,189.2L140.6,18.1L429.5,18.1L521,145.9"></path>
	<g>
		
			<path transform="matrix(0.7071 -0.7071 0.7071 0.7071 19.5051 406.5986)" class="st0 LpAQbXXD_34" width="13.3" height="13.3" d="M493.9 173.1 L507.2 173.1 L507.2 186.4 L493.9 186.4 Z"></path>
		
			<path transform="matrix(0.7071 -0.7071 0.7071 0.7071 12.858 409.3854)" class="st0 LpAQbXXD_35" width="13.3" height="13.3" d="M493.9 182.5 L507.2 182.5 L507.2 195.8 L493.9 195.8 Z"></path>
		
			<path transform="matrix(0.7071 -0.7071 0.7071 0.7071 6.1965 412.1416)" class="st0 LpAQbXXD_36" width="13.3" height="13.3" d="M493.9 191.9 L507.2 191.9 L507.2 205.20000000000002 L493.9 205.20000000000002 Z"></path>
	</g>
	<g>
		
			<path transform="matrix(0.7071 -0.7071 0.7071 0.7071 -109.2979 95.6269)" class="st0 LpAQbXXD_37" width="13.3" height="13.3" d="M54.1 173.1 L67.4 173.1 L67.4 186.4 L54.1 186.4 Z"></path>
		
			<path transform="matrix(0.7071 -0.7071 0.7071 0.7071 -115.9633 98.3958)" class="st0 LpAQbXXD_38" width="13.3" height="13.3" d="M54.1 182.5 L67.4 182.5 L67.4 195.8 L54.1 195.8 Z"></path>
		
			<path transform="matrix(0.7071 -0.7071 0.7071 0.7071 -122.6233 101.1538)" class="st0 LpAQbXXD_39" width="13.3" height="13.3" d="M54.1 191.9 L67.4 191.9 L67.4 205.20000000000002 L54.1 205.20000000000002 Z"></path>
	</g>
</g>
<style data-made-with="vivus-instant">.LpAQbXXD_0{stroke-dasharray:194 196;stroke-dashoffset:195;animation:LpAQbXXD_draw 2000ms ease-in-out 0ms forwards;}.LpAQbXXD_1{stroke-dasharray:0 2;stroke-dashoffset:1;animation:LpAQbXXD_draw 2000ms ease-in-out 51ms forwards;}.LpAQbXXD_2{stroke-dasharray:212 214;stroke-dashoffset:213;animation:LpAQbXXD_draw 2000ms ease-in-out 102ms forwards;}.LpAQbXXD_3{stroke-dasharray:0 2;stroke-dashoffset:1;animation:LpAQbXXD_draw 2000ms ease-in-out 153ms forwards;}.LpAQbXXD_4{stroke-dasharray:214 216;stroke-dashoffset:215;animation:LpAQbXXD_draw 2000ms ease-in-out 205ms forwards;}.LpAQbXXD_5{stroke-dasharray:0 2;stroke-dashoffset:1;animation:LpAQbXXD_draw 2000ms ease-in-out 256ms forwards;}.LpAQbXXD_6{stroke-dasharray:195 197;stroke-dashoffset:196;animation:LpAQbXXD_draw 2000ms ease-in-out 307ms forwards;}.LpAQbXXD_7{stroke-dasharray:0 2;stroke-dashoffset:1;animation:LpAQbXXD_draw 2000ms ease-in-out 358ms forwards;}.LpAQbXXD_8{stroke-dasharray:0 2;stroke-dashoffset:1;animation:LpAQbXXD_draw 2000ms ease-in-out 410ms forwards;}.LpAQbXXD_9{stroke-dasharray:0 2;stroke-dashoffset:1;animation:LpAQbXXD_draw 2000ms ease-in-out 461ms forwards;}.LpAQbXXD_10{stroke-dasharray:163 165;stroke-dashoffset:164;animation:LpAQbXXD_draw 2000ms ease-in-out 512ms forwards;}.LpAQbXXD_11{stroke-dasharray:0 2;stroke-dashoffset:1;animation:LpAQbXXD_draw 2000ms ease-in-out 564ms forwards;}.LpAQbXXD_12{stroke-dasharray:0 2;stroke-dashoffset:1;animation:LpAQbXXD_draw 2000ms ease-in-out 615ms forwards;}.LpAQbXXD_13{stroke-dasharray:0 2;stroke-dashoffset:1;animation:LpAQbXXD_draw 2000ms ease-in-out 666ms forwards;}.LpAQbXXD_14{stroke-dasharray:186 188;stroke-dashoffset:187;animation:LpAQbXXD_draw 2000ms ease-in-out 717ms forwards;}.LpAQbXXD_15{stroke-dasharray:188 190;stroke-dashoffset:189;animation:LpAQbXXD_draw 2000ms ease-in-out 769ms forwards;}.LpAQbXXD_16{stroke-dasharray:0 2;stroke-dashoffset:1;animation:LpAQbXXD_draw 2000ms ease-in-out 820ms forwards;}.LpAQbXXD_17{stroke-dasharray:163 165;stroke-dashoffset:164;animation:LpAQbXXD_draw 2000ms ease-in-out 871ms forwards;}.LpAQbXXD_18{stroke-dasharray:0 2;stroke-dashoffset:1;animation:LpAQbXXD_draw 2000ms ease-in-out 923ms forwards;}.LpAQbXXD_19{stroke-dasharray:0 2;stroke-dashoffset:1;animation:LpAQbXXD_draw 2000ms ease-in-out 974ms forwards;}.LpAQbXXD_20{stroke-dasharray:0 2;stroke-dashoffset:1;animation:LpAQbXXD_draw 2000ms ease-in-out 1025ms forwards;}.LpAQbXXD_21{stroke-dasharray:178 180;stroke-dashoffset:179;animation:LpAQbXXD_draw 2000ms ease-in-out 1076ms forwards;}.LpAQbXXD_22{stroke-dasharray:207 209;stroke-dashoffset:208;animation:LpAQbXXD_draw 2000ms ease-in-out 1128ms forwards;}.LpAQbXXD_23{stroke-dasharray:209 211;stroke-dashoffset:210;animation:LpAQbXXD_draw 2000ms ease-in-out 1179ms forwards;}.LpAQbXXD_24{stroke-dasharray:0 2;stroke-dashoffset:1;animation:LpAQbXXD_draw 2000ms ease-in-out 1230ms forwards;}.LpAQbXXD_25{stroke-dasharray:189 191;stroke-dashoffset:190;animation:LpAQbXXD_draw 2000ms ease-in-out 1282ms forwards;}.LpAQbXXD_26{stroke-dasharray:0 2;stroke-dashoffset:1;animation:LpAQbXXD_draw 2000ms ease-in-out 1333ms forwards;}.LpAQbXXD_27{stroke-dasharray:0 2;stroke-dashoffset:1;animation:LpAQbXXD_draw 2000ms ease-in-out 1384ms forwards;}.LpAQbXXD_28{stroke-dasharray:87 89;stroke-dashoffset:88;animation:LpAQbXXD_draw 2000ms ease-in-out 1435ms forwards;}.LpAQbXXD_29{stroke-dasharray:87 89;stroke-dashoffset:88;animation:LpAQbXXD_draw 2000ms ease-in-out 1487ms forwards;}.LpAQbXXD_30{stroke-dasharray:87 89;stroke-dashoffset:88;animation:LpAQbXXD_draw 2000ms ease-in-out 1538ms forwards;}.LpAQbXXD_31{stroke-dasharray:87 89;stroke-dashoffset:88;animation:LpAQbXXD_draw 2000ms ease-in-out 1589ms forwards;}.LpAQbXXD_32{stroke-dasharray:1484 1486;stroke-dashoffset:1485;animation:LpAQbXXD_draw 2000ms ease-in-out 1641ms forwards;}.LpAQbXXD_33{stroke-dasharray:1420 1422;stroke-dashoffset:1421;animation:LpAQbXXD_draw 2000ms ease-in-out 1692ms forwards;}.LpAQbXXD_34{stroke-dasharray:54 56;stroke-dashoffset:55;animation:LpAQbXXD_draw 2000ms ease-in-out 1743ms forwards;}.LpAQbXXD_35{stroke-dasharray:54 56;stroke-dashoffset:55;animation:LpAQbXXD_draw 2000ms ease-in-out 1794ms forwards;}.LpAQbXXD_36{stroke-dasharray:54 56;stroke-dashoffset:55;animation:LpAQbXXD_draw 2000ms ease-in-out 1846ms forwards;}.LpAQbXXD_37{stroke-dasharray:54 56;stroke-dashoffset:55;animation:LpAQbXXD_draw 2000ms ease-in-out 1897ms forwards;}.LpAQbXXD_38{stroke-dasharray:54 56;stroke-dashoffset:55;animation:LpAQbXXD_draw 2000ms ease-in-out 1948ms forwards;}.LpAQbXXD_39{stroke-dasharray:54 56;stroke-dashoffset:55;animation:LpAQbXXD_draw 2000ms ease-in-out 2000ms forwards;}@keyframes LpAQbXXD_draw{100%{stroke-dashoffset:0;}}@keyframes LpAQbXXD_fade{0%{stroke-opacity:1;}95.1219512195122%{stroke-opacity:1;}100%{stroke-opacity:0;}}</style></svg>
