<!--?xml version="1.0" encoding="utf-8"?-->
<!-- Generator: Adobe Illustrator 23.0.6, SVG Export Plug-In . SVG Version: 6.00 Build 0)  -->
<svg version="1.1" id="Layer_1" xmlns="http://www.w3.org/2000/svg" xmlns:xlink="http://www.w3.org/1999/xlink" x="0px" y="0px" viewBox="0 0 573.9 378.9" style="" xml:space="preserve">
<style type="text/css">
	.st0{fill:none;stroke:#E7CF8E;stroke-miterlimit:10;}
	.st1{fill:none;stroke:#E8D18F;stroke-width:2;stroke-miterlimit:10;}
	.st2{fill:none;stroke:#E8D18F;stroke-miterlimit:10;}
</style>
<g>
	<g>
		<path class="st0 OrJSWgBI_0" d="M439.7,32.3L520.3,32.3L520.3,145.5"></path>
		<path class="st0 OrJSWgBI_1" d="M423.2,32.3"></path>
		<path class="st0 OrJSWgBI_2" d="M42.2,155.6L42.2,32.3L130.4,32.3"></path>
		<path class="st0 OrJSWgBI_3" d="M42.2,174.1"></path>
		<path class="st0 OrJSWgBI_4" d="M131.2,347L42.2,347L42.2,222.7"></path>
		<path class="st0 OrJSWgBI_5" d="M131.7,347"></path>
		<path class="st0 OrJSWgBI_6" d="M520.3,233.7L520.3,347L439,347"></path>
		<path class="st0 OrJSWgBI_7" d="M520.3,225"></path>
		<path class="st0 OrJSWgBI_8" d="M520.3,213.3"></path>
		<path class="st0 OrJSWgBI_9" d="M520.3,145.5"></path>
		<path class="st0 OrJSWgBI_10" d="M432,21.5L499.4,21.5L499.4,116.3"></path>
		<path class="st0 OrJSWgBI_11" d="M416.1,21.5"></path>
		<path class="st0 OrJSWgBI_12" d="M291.3,21.5"></path>
		<path class="st0 OrJSWgBI_13" d="M238.9,21.5"></path>
		<path class="st0 OrJSWgBI_14" d="M60.8,129.7L60.8,21.5L138.2,21.5"></path>
		<path class="st0 OrJSWgBI_15" d="M139.5,357.8L60.8,357.8L60.8,248.7"></path>
		<path class="st0 OrJSWgBI_16" d="M196.6,357.8"></path>
		<path class="st0 OrJSWgBI_17" d="M499.4,263.1L499.4,357.8L431.3,357.8"></path>
		<path class="st0 OrJSWgBI_18" d="M499.4,263.1"></path>
		<path class="st0 OrJSWgBI_19" d="M499.4,258.2"></path>
		<path class="st0 OrJSWgBI_20" d="M499.4,250"></path>
		<path class="st0 OrJSWgBI_21" d="M464.2,50.4L531.1,50.4L531.1,160.6"></path>
		<path class="st0 OrJSWgBI_22" d="M31.4,170.7L31.4,50.4L117.5,50.4"></path>
		<path class="st0 OrJSWgBI_23" d="M118.2,328.9L31.4,328.9L31.4,207.6"></path>
		<path class="st0 OrJSWgBI_24" d="M452.3,328.9"></path>
		<path class="st0 OrJSWgBI_25" d="M531.1,218.8L531.1,328.9L452.3,328.9"></path>
		<path class="st0 OrJSWgBI_26" d="M531.1,217"></path>
		<path class="st0 OrJSWgBI_27" d="M531.1,160.6"></path>
		<path class="st0 OrJSWgBI_28" width="21.6" height="21.6" d="M509.5 21.5 L531.1 21.5 L531.1 43.1 L509.5 43.1 Z"></path>
		<path class="st0 OrJSWgBI_29" width="21.6" height="21.6" d="M509.5 336.2 L531.1 336.2 L531.1 357.8 L509.5 357.8 Z"></path>
		<path class="st0 OrJSWgBI_30" width="21.6" height="21.6" d="M31.4 21.5 L53 21.5 L53 43.1 L31.4 43.1 Z"></path>
		<path class="st0 OrJSWgBI_31" width="21.6" height="21.6" d="M31.4 336.2 L53 336.2 L53 357.8 L31.4 357.8 Z"></path>
	</g>
	<path class="st1 OrJSWgBI_32" d="M135.3,9.4L434.8,9.4L563.5,189.2L434.8,368.9L135.3,368.9L6.7,189.2Z"></path>
	<path class="st2 OrJSWgBI_33" d="M521,145.9L551.9,189.2L429.5,360.2L140.6,360.2L18.2,189.2L140.6,18.1L429.5,18.1L521,145.9"></path>
	<g>
		
			<path transform="matrix(0.7071 -0.7071 0.7071 0.7071 23.6051 416.4976)" class="st0 OrJSWgBI_34" width="13.3" height="13.3" d="M507.9 173.1 L521.1999999999999 173.1 L521.1999999999999 186.4 L507.9 186.4 Z"></path>
		
			<path transform="matrix(0.7071 -0.7071 0.7071 0.7071 16.9585 419.2849)" class="st0 OrJSWgBI_35" width="13.3" height="13.3" d="M507.9 182.5 L521.1999999999999 182.5 L521.1999999999999 195.8 L507.9 195.8 Z"></path>
		
			<path transform="matrix(0.7071 -0.7071 0.7071 0.7071 10.297 422.041)" class="st0 OrJSWgBI_36" width="13.3" height="13.3" d="M507.9 191.9 L521.1999999999999 191.9 L521.1999999999999 205.20000000000002 L507.9 205.20000000000002 Z"></path>
	</g>
	<g>
		
			<path transform="matrix(0.7071 -0.7071 0.7071 0.7071 -109.2979 95.6269)" class="st0 OrJSWgBI_37" width="13.3" height="13.3" d="M54.1 173.1 L67.4 173.1 L67.4 186.4 L54.1 186.4 Z"></path>
		
			<path transform="matrix(0.7071 -0.7071 0.7071 0.7071 -115.9633 98.3958)" class="st0 OrJSWgBI_38" width="13.3" height="13.3" d="M54.1 182.5 L67.4 182.5 L67.4 195.8 L54.1 195.8 Z"></path>
		
			<path transform="matrix(0.7071 -0.7071 0.7071 0.7071 -122.6233 101.1538)" class="st0 OrJSWgBI_39" width="13.3" height="13.3" d="M54.1 191.9 L67.4 191.9 L67.4 205.20000000000002 L54.1 205.20000000000002 Z"></path>
	</g>
</g>
<style data-made-with="vivus-instant">.OrJSWgBI_0{stroke-dasharray:194 196;stroke-dashoffset:195;animation:OrJSWgBI_draw 2666ms ease-in-out 0ms forwards;}.OrJSWgBI_1{stroke-dasharray:0 2;stroke-dashoffset:1;animation:OrJSWgBI_draw 2666ms ease-in-out 34ms forwards;}.OrJSWgBI_2{stroke-dasharray:212 214;stroke-dashoffset:213;animation:OrJSWgBI_draw 2666ms ease-in-out 68ms forwards;}.OrJSWgBI_3{stroke-dasharray:0 2;stroke-dashoffset:1;animation:OrJSWgBI_draw 2666ms ease-in-out 102ms forwards;}.OrJSWgBI_4{stroke-dasharray:214 216;stroke-dashoffset:215;animation:OrJSWgBI_draw 2666ms ease-in-out 136ms forwards;}.OrJSWgBI_5{stroke-dasharray:0 2;stroke-dashoffset:1;animation:OrJSWgBI_draw 2666ms ease-in-out 170ms forwards;}.OrJSWgBI_6{stroke-dasharray:195 197;stroke-dashoffset:196;animation:OrJSWgBI_draw 2666ms ease-in-out 205ms forwards;}.OrJSWgBI_7{stroke-dasharray:0 2;stroke-dashoffset:1;animation:OrJSWgBI_draw 2666ms ease-in-out 239ms forwards;}.OrJSWgBI_8{stroke-dasharray:0 2;stroke-dashoffset:1;animation:OrJSWgBI_draw 2666ms ease-in-out 273ms forwards;}.OrJSWgBI_9{stroke-dasharray:0 2;stroke-dashoffset:1;animation:OrJSWgBI_draw 2666ms ease-in-out 307ms forwards;}.OrJSWgBI_10{stroke-dasharray:163 165;stroke-dashoffset:164;animation:OrJSWgBI_draw 2666ms ease-in-out 341ms forwards;}.OrJSWgBI_11{stroke-dasharray:0 2;stroke-dashoffset:1;animation:OrJSWgBI_draw 2666ms ease-in-out 376ms forwards;}.OrJSWgBI_12{stroke-dasharray:0 2;stroke-dashoffset:1;animation:OrJSWgBI_draw 2666ms ease-in-out 410ms forwards;}.OrJSWgBI_13{stroke-dasharray:0 2;stroke-dashoffset:1;animation:OrJSWgBI_draw 2666ms ease-in-out 444ms forwards;}.OrJSWgBI_14{stroke-dasharray:186 188;stroke-dashoffset:187;animation:OrJSWgBI_draw 2666ms ease-in-out 478ms forwards;}.OrJSWgBI_15{stroke-dasharray:188 190;stroke-dashoffset:189;animation:OrJSWgBI_draw 2666ms ease-in-out 512ms forwards;}.OrJSWgBI_16{stroke-dasharray:0 2;stroke-dashoffset:1;animation:OrJSWgBI_draw 2666ms ease-in-out 547ms forwards;}.OrJSWgBI_17{stroke-dasharray:163 165;stroke-dashoffset:164;animation:OrJSWgBI_draw 2666ms ease-in-out 581ms forwards;}.OrJSWgBI_18{stroke-dasharray:0 2;stroke-dashoffset:1;animation:OrJSWgBI_draw 2666ms ease-in-out 615ms forwards;}.OrJSWgBI_19{stroke-dasharray:0 2;stroke-dashoffset:1;animation:OrJSWgBI_draw 2666ms ease-in-out 649ms forwards;}.OrJSWgBI_20{stroke-dasharray:0 2;stroke-dashoffset:1;animation:OrJSWgBI_draw 2666ms ease-in-out 683ms forwards;}.OrJSWgBI_21{stroke-dasharray:178 180;stroke-dashoffset:179;animation:OrJSWgBI_draw 2666ms ease-in-out 717ms forwards;}.OrJSWgBI_22{stroke-dasharray:207 209;stroke-dashoffset:208;animation:OrJSWgBI_draw 2666ms ease-in-out 752ms forwards;}.OrJSWgBI_23{stroke-dasharray:209 211;stroke-dashoffset:210;animation:OrJSWgBI_draw 2666ms ease-in-out 786ms forwards;}.OrJSWgBI_24{stroke-dasharray:0 2;stroke-dashoffset:1;animation:OrJSWgBI_draw 2666ms ease-in-out 820ms forwards;}.OrJSWgBI_25{stroke-dasharray:189 191;stroke-dashoffset:190;animation:OrJSWgBI_draw 2666ms ease-in-out 854ms forwards;}.OrJSWgBI_26{stroke-dasharray:0 2;stroke-dashoffset:1;animation:OrJSWgBI_draw 2666ms ease-in-out 888ms forwards;}.OrJSWgBI_27{stroke-dasharray:0 2;stroke-dashoffset:1;animation:OrJSWgBI_draw 2666ms ease-in-out 923ms forwards;}.OrJSWgBI_28{stroke-dasharray:87 89;stroke-dashoffset:88;animation:OrJSWgBI_draw 2666ms ease-in-out 957ms forwards;}.OrJSWgBI_29{stroke-dasharray:87 89;stroke-dashoffset:88;animation:OrJSWgBI_draw 2666ms ease-in-out 991ms forwards;}.OrJSWgBI_30{stroke-dasharray:87 89;stroke-dashoffset:88;animation:OrJSWgBI_draw 2666ms ease-in-out 1025ms forwards;}.OrJSWgBI_31{stroke-dasharray:87 89;stroke-dashoffset:88;animation:OrJSWgBI_draw 2666ms ease-in-out 1059ms forwards;}.OrJSWgBI_32{stroke-dasharray:1484 1486;stroke-dashoffset:1485;animation:OrJSWgBI_draw 2666ms ease-in-out 1094ms forwards;}.OrJSWgBI_33{stroke-dasharray:1420 1422;stroke-dashoffset:1421;animation:OrJSWgBI_draw 2666ms ease-in-out 1128ms forwards;}.OrJSWgBI_34{stroke-dasharray:54 56;stroke-dashoffset:55;animation:OrJSWgBI_draw 2666ms ease-in-out 1162ms forwards;}.OrJSWgBI_35{stroke-dasharray:54 56;stroke-dashoffset:55;animation:OrJSWgBI_draw 2666ms ease-in-out 1196ms forwards;}.OrJSWgBI_36{stroke-dasharray:54 56;stroke-dashoffset:55;animation:OrJSWgBI_draw 2666ms ease-in-out 1230ms forwards;}.OrJSWgBI_37{stroke-dasharray:54 56;stroke-dashoffset:55;animation:OrJSWgBI_draw 2666ms ease-in-out 1264ms forwards;}.OrJSWgBI_38{stroke-dasharray:54 56;stroke-dashoffset:55;animation:OrJSWgBI_draw 2666ms ease-in-out 1299ms forwards;}.OrJSWgBI_39{stroke-dasharray:54 56;stroke-dashoffset:55;animation:OrJSWgBI_draw 2666ms ease-in-out 1333ms forwards;}@keyframes OrJSWgBI_draw{100%{stroke-dashoffset:0;}}@keyframes OrJSWgBI_fade{0%{stroke-opacity:1;}95.1219512195122%{stroke-opacity:1;}100%{stroke-opacity:0;}}</style></svg>
