<?xml version="1.0" encoding="utf-8"?>
<!-- Generator: Adobe Illustrator 24.0.3, SVG Export Plug-In . SVG Version: 6.00 Build 0)  -->
<svg version="1.1" id="Layer_1" xmlns="http://www.w3.org/2000/svg" xmlns:xlink="http://www.w3.org/1999/xlink" x="0px" y="0px"
	 viewBox="0 0 422.2 194.4" style="enable-background:new 0 0 422.2 194.4;" xml:space="preserve">
<style type="text/css">
	.st0{clip-path:url(#SVGID_2_);fill:none;stroke:#FFD600;}
	.st1{clip-path:url(#SVGID_4_);fill:none;stroke:#FFFFFF;stroke-width:5.1268;}
	.st2{clip-path:url(#SVGID_6_);fill:#FFFFFF;}
	.st3{clip-path:url(#SVGID_6_);fill:none;stroke:#FFFFFF;stroke-width:1.851;}
</style>
<g>
	<g>
		<defs>
			<rect id="SVGID_1_" x="-180.9" y="-156.7" width="841.9" height="595.3"/>
		</defs>
		<clipPath id="SVGID_2_">
			<use xlink:href="#SVGID_1_"  style="overflow:visible;"/>
		</clipPath>
		<rect x="-180.4" y="-164.7" class="st0" width="850.8" height="609.9"/>
	</g>
	<text transform="matrix(1 0 0 1 637.5488 414.5651)" style="fill:#FFFFFF; font-family:'Interstate-Bold'; font-size:11.3143px;">7</text>
	<g>
		<defs>
			<rect id="SVGID_3_" width="422.2" height="203.6"/>
		</defs>
		<clipPath id="SVGID_4_">
			<use xlink:href="#SVGID_3_"  style="overflow:visible;"/>
		</clipPath>
		<rect x="2.6" y="2.6" class="st1" width="417" height="187"/>
	</g>
	<g>
		<defs>
			<rect id="SVGID_5_" x="-9.4" y="-7.9" width="444.1" height="211.5"/>
		</defs>
		<clipPath id="SVGID_6_">
			<use xlink:href="#SVGID_5_"  style="overflow:visible;"/>
		</clipPath>
		<polygon class="st2" points="20,18.5 67.6,18.5 87.7,57.7 107.7,18.5 155.3,18.5 155.3,130.2 109.9,130.2 109.9,73.8 87.7,111.3 
			65.4,73.8 65.4,129.3 20,129.3 		"/>
		<polygon class="st2" points="277.7,18.3 277.4,19.1 266.5,33.8 266.5,107.2 285.3,130.2 311.9,130.2 311.9,73.8 334.2,111.3 
			356.4,73.8 356.4,129.3 401.8,129.3 401.8,18.5 354.2,18.5 334.2,57.7 314.2,18.4 		"/>
		<polygon class="st3" points="277.4,19.1 227.5,19.1 199.4,66.4 199.1,19.1 154.6,19.1 154.6,129.4 199.1,129.4 199.4,83.1 
			280.5,189.2 333.5,189.2 285.3,130.2 266.5,107.2 238,72.4 266.5,33.8 		"/>
		<path class="st2" d="M43.7,157v-3.7h0.6c1.3,0,3-0.1,3,1.8c0,1.8-1.5,1.9-2.8,1.9H43.7z M35.3,173.3h12.4c4.4,0,9.2-1.9,9.2-7.3
			c0-3.2-1.7-5.3-4.5-6.3v-0.2c2.2-0.7,3.3-3,3.3-5.3c0-6.1-5-7.3-9.8-7.3H35.3V173.3z M43.7,162.6h0.9c1.5,0,3.8,0,3.8,2.2
			c0,2.2-2.1,2.2-3.6,2.2h-1V162.6z"/>
		<path class="st2" d="M81.7,146.9v15.6c0,7.7-4.6,11.2-11.6,11.2c-7,0-11.6-3.5-11.6-11.2v-15.6h9.1v14.7c0,2.1,0.1,3.9,2.5,3.9
			c2.4,0,2.5-1.8,2.5-3.9v-14.7H81.7z"/>
		<rect x="84.6" y="146.9" class="st2" width="9.1" height="26.4"/>
		<polygon class="st2" points="96.9,146.9 106,146.9 106,164.8 113.6,164.8 113.6,173.3 96.9,173.3 		"/>
		<path class="st2" d="M124.1,155.2h0.6c3.3,0,5.4,1.6,5.4,5.3c0,3.5-2.3,4.9-5.4,4.9h-0.6V155.2z M115,173.3h11.5
			c7.4,0,12.6-5,12.6-12.8c0-9.7-6.4-13.6-14.9-13.6H115V173.3z"/>
		<rect x="141.4" y="146.9" class="st2" width="9.1" height="26.4"/>
		<path class="st2" d="M153.4,146.9h8.8l8.2,14.6h0.3c-0.4-2.2-0.8-4.5-0.8-6.7v-7.9h8.7v26.4h-8.7l-8-13.9h-0.3
			c0.3,1.8,0.6,3.5,0.6,5.3v8.6h-8.7V146.9z"/>
		<path class="st2" d="M207.9,157.7c-0.1,4.3-0.1,7.9-3,11.3c-2.7,3-6.8,4.7-10.6,4.7c-7.7,0-13.8-5-13.8-13.4
			c0-8.6,6-13.8,13.9-13.8c4.4,0,10.3,2.3,12.3,6.8l-8.5,3.3c-0.7-1.3-2-2-3.5-2c-3.3,0-5.1,2.9-5.1,6.1c0,2.9,1.7,5.7,4.7,5.7
			c1.4,0,3.3-0.7,3.7-2.3h-4.1v-6.2H207.9z"/>
		<path class="st2" d="M224,163.8l0.5,0.4c1.6,1.3,3.6,2.4,5.7,2.4c0.9,0,2.3-0.4,2.3-1.6c0-1.2-1.2-1.3-2-1.5l-1.8-0.4
			c-3.6-0.7-6.5-2.9-6.5-7c0-6.3,5.4-9.8,10.9-9.8c2.9,0,5.5,0.7,8,2.3l-2.5,6.8c-1.6-1.1-3.3-2-5.3-2c-0.8,0-2,0.3-2,1.4
			c0,1,1.1,1.1,1.8,1.3l2.1,0.5c3.9,0.9,6.7,3.1,6.7,7.6c0,6.3-5.5,9.4-10.9,9.4c-3.2,0-6.8-0.9-9.6-2.4L224,163.8z"/>
		<path class="st2" d="M266.5,146.9v15.6c0,7.7-4.6,11.2-11.6,11.2c-7,0-11.6-3.5-11.6-11.2v-15.6h9.1v14.7c0,2.1,0.1,3.9,2.5,3.9
			c2.4,0,2.5-1.8,2.5-3.9v-14.7H266.5z"/>
		<path class="st2" d="M278.2,154.1h0.9c1.5,0,3.4,0.1,3.4,2.2c0,2.1-1.7,2.4-3.3,2.4h-0.9V154.1z M269.4,173.3h8.8v-7.9h4.7
			c5.1,0,8.3-3.4,8.3-8.7c0-6.6-4.3-9.7-10.2-9.7h-11.6V173.3z"/>
		<path class="st2" d="M301.2,154.1h0.9c1.5,0,3.4,0.1,3.4,2.2c0,2.1-1.7,2.4-3.3,2.4h-0.9V154.1z M292.4,173.3h8.8v-7.9h4.7
			c5.1,0,8.3-3.4,8.3-8.7c0-6.6-4.3-9.7-10.2-9.7h-11.6V173.3z"/>
		<polygon class="st2" points="315.5,146.9 324.6,146.9 324.6,164.8 332.3,164.8 332.3,173.3 315.5,173.3 		"/>
		<rect x="333.7" y="146.9" class="st2" width="9.1" height="26.4"/>
		<polygon class="st2" points="345.7,146.9 362.6,146.9 362.6,154.1 354.9,154.1 354.9,156.6 361.9,156.6 361.9,163.5 354.9,163.5 
			354.9,166.1 362.9,166.1 362.9,173.3 345.7,173.3 		"/>
		<path class="st2" d="M367,163.8l0.5,0.4c1.6,1.3,3.6,2.4,5.7,2.4c0.9,0,2.3-0.4,2.3-1.6c0-1.2-1.2-1.3-2-1.5l-1.8-0.4
			c-3.6-0.7-6.5-2.9-6.5-7c0-6.3,5.4-9.8,10.9-9.8c2.9,0,5.5,0.7,8,2.3l-2.5,6.8c-1.6-1.1-3.3-2-5.3-2c-0.8,0-2,0.3-2,1.4
			c0,1,1.1,1.1,1.8,1.3l2.1,0.5c3.9,0.9,6.7,3.1,6.7,7.6c0,6.3-5.5,9.4-10.9,9.4c-3.2,0-6.8-0.9-9.6-2.4L367,163.8z"/>
	</g>
</g>
</svg>
