<?xml version="1.0" encoding="utf-8"?>
<!-- Generator: Adobe Illustrator 24.0.3, SVG Export Plug-In . SVG Version: 6.00 Build 0)  -->
<svg version="1.1" id="Layer_1" xmlns="http://www.w3.org/2000/svg" xmlns:xlink="http://www.w3.org/1999/xlink" x="0px" y="0px"
	 viewBox="0 0 214 97.4" style="enable-background:new 0 0 214 97.4;" xml:space="preserve">
<style type="text/css">
	.Arched_x0020_Green{fill:url(#SVGID_1_);stroke:#FFFFFF;stroke-width:0.25;stroke-miterlimit:1;}
	.st0{fill:#FFD601;}
	.st1{clip-path:url(#SVGID_3_);fill:none;stroke:#12549F;stroke-width:2.5996;}
	.st2{fill:#12549F;}
	.st3{clip-path:url(#SVGID_5_);fill:none;stroke:#12549F;stroke-width:2.5996;}
	.st4{fill:#FFFFFF;}
</style>
<linearGradient id="SVGID_1_" gradientUnits="userSpaceOnUse" x1="-302.9438" y1="371.813" x2="-302.2367" y2="371.1059">
	<stop  offset="0" style="stop-color:#259E2E"/>
	<stop  offset="0.9831" style="stop-color:#1C381D"/>
</linearGradient>
<g>
	<rect x="1.3" y="1.3" class="st0" width="211.4" height="94.8"/>
	<g>
		<defs>
			<rect id="SVGID_2_" width="214" height="97.4"/>
		</defs>
		<clipPath id="SVGID_3_">
			<use xlink:href="#SVGID_2_"  style="overflow:visible;"/>
		</clipPath>
		<rect x="1.3" y="1.3" class="st1" width="211.4" height="94.8"/>
		<path class="st1" d="M212.7,96.1"/>
	</g>
	<polyline class="st2" points="10.1,9.4 34.3,9.4 44.4,29.2 54.6,9.4 78.7,9.4 78.7,66 55.7,66 55.7,37.4 44.4,56.4 33.1,37.4 
		33.1,65.5 10.1,65.5 10.1,9.4 	"/>
	<polyline class="st2" points="135.1,9.4 159.2,9.4 169.4,29.2 179.5,9.4 203.7,9.4 203.7,65.5 180.7,65.5 180.7,37.4 169.4,56.4 
		158.1,37.4 158.1,66 135.1,66 135.1,9.4 	"/>
	<polyline class="st2" points="78.7,10.3 101.1,10.3 101.2,34 115.3,10.3 140.3,10.3 120.5,37 168.4,95.5 141.8,95.5 101.2,42.3 
		101.1,65.1 78.7,65.1 78.7,10.3 	"/>
	<g>
		<defs>
			<rect id="SVGID_4_" width="214" height="97.4"/>
		</defs>
		<clipPath id="SVGID_5_">
			<use xlink:href="#SVGID_4_"  style="overflow:visible;"/>
		</clipPath>
		<polygon class="st3" points="78.7,10.3 101.1,10.3 101.2,34 115.3,10.3 140.3,10.3 120.5,37 168.4,95.5 141.8,95.5 101.2,42.3 
			101.1,65.1 78.7,65.1 		"/>
	</g>
	<polyline class="st4" points="78.7,10.3 101.1,10.3 101.2,34 115.3,10.3 140.3,10.3 120.5,37 168.4,95.5 141.8,95.5 101.2,42.3 
		101.1,65.1 78.7,65.1 78.7,10.3 	"/>
	<path class="st2" d="M22.2,79.6v-1.9h0.3c0.7,0,1.5-0.1,1.5,0.9c0,0.9-0.8,1-1.4,1H22.2 M17.9,87.8h6.3c2.2,0,4.7-0.9,4.7-3.7
		c0-1.6-0.9-2.7-2.3-3.2v-0.1c1.1-0.4,1.7-1.5,1.7-2.7c0-3.1-2.5-3.7-5-3.7h-5.4V87.8z M22.2,82.4h0.5c0.7,0,1.9,0,1.9,1.1
		c0,1.1-1.1,1.1-1.8,1.1h-0.5V82.4z"/>
	<path class="st2" d="M41.4,74.5v7.9c0,3.9-2.3,5.7-5.9,5.7c-3.6,0-5.9-1.8-5.9-5.7v-7.9h4.6v7.5c0,1,0,2,1.3,2c1.2,0,1.3-0.9,1.3-2
		v-7.5H41.4"/>
	<rect x="42.9" y="74.5" class="st2" width="4.6" height="13.4"/>
	<polyline class="st2" points="49.1,74.5 53.7,74.5 53.7,83.5 57.6,83.5 57.6,87.8 49.1,87.8 49.1,74.5 	"/>
	<path class="st2" d="M62.9,78.6h0.3c1.7,0,2.7,0.8,2.7,2.7c0,1.8-1.2,2.5-2.7,2.5h-0.3V78.6 M58.3,87.8h5.9c3.7,0,6.4-2.5,6.4-6.5
		c0-4.9-3.3-6.9-7.5-6.9h-4.7V87.8z"/>
	<rect x="71.7" y="74.5" class="st2" width="4.6" height="13.4"/>
	<path class="st2" d="M77.8,74.5h4.4l4.1,7.4h0.1c-0.2-1.1-0.4-2.3-0.4-3.4v-4h4.4v13.4h-4.4l-4.1-7h-0.1c0.2,0.9,0.3,1.8,0.3,2.7
		v4.3h-4.4V74.5"/>
	<path class="st2" d="M105.4,80c0,2.2,0,4-1.5,5.7c-1.3,1.5-3.4,2.4-5.4,2.4c-3.9,0-7-2.5-7-6.8c0-4.4,3.1-7,7-7
		c2.2,0,5.2,1.2,6.2,3.4l-4.3,1.7c-0.4-0.7-1-1-1.8-1c-1.7,0-2.6,1.5-2.6,3.1c0,1.5,0.9,2.9,2.4,2.9c0.7,0,1.7-0.4,1.9-1.2h-2.1V80
		H105.4"/>
	<path class="st2" d="M113.6,83.1l0.2,0.2c0.8,0.7,1.8,1.2,2.9,1.2c0.5,0,1.2-0.2,1.2-0.8c0-0.6-0.6-0.7-1-0.7l-0.9-0.2
		c-1.8-0.3-3.3-1.5-3.3-3.6c0-3.2,2.7-4.9,5.5-4.9c1.5,0,2.8,0.4,4,1.2l-1.2,3.4c-0.8-0.6-1.7-1-2.7-1c-0.4,0-1,0.2-1,0.7
		c0,0.5,0.6,0.6,0.9,0.7l1,0.2c2,0.5,3.4,1.6,3.4,3.8c0,3.2-2.8,4.8-5.5,4.8c-1.6,0-3.5-0.5-4.9-1.2L113.6,83.1"/>
	<path class="st2" d="M135.1,74.5v7.9c0,3.9-2.3,5.7-5.9,5.7c-3.6,0-5.9-1.8-5.9-5.7v-7.9h4.6v7.5c0,1,0,2,1.3,2
		c1.2,0,1.3-0.9,1.3-2v-7.5H135.1"/>
	<path class="st2" d="M141,78.1h0.4c0.8,0,1.7,0.1,1.7,1.1c0,1.1-0.9,1.2-1.7,1.2H141V78.1 M136.6,87.8h4.5v-4h2.4
		c2.6,0,4.2-1.7,4.2-4.4c0-3.3-2.2-4.9-5.2-4.9h-5.9V87.8z"/>
	<path class="st2" d="M152.7,78.1h0.4c0.8,0,1.7,0.1,1.7,1.1c0,1.1-0.9,1.2-1.7,1.2h-0.5V78.1 M148.2,87.8h4.5v-4h2.4
		c2.6,0,4.2-1.7,4.2-4.4c0-3.3-2.2-4.9-5.2-4.9h-5.9V87.8z"/>
	<polyline class="st2" points="159.9,74.5 164.6,74.5 164.6,83.5 168.4,83.5 168.4,87.8 159.9,87.8 159.9,74.5 	"/>
	<rect x="169.1" y="74.5" class="st2" width="4.6" height="13.4"/>
	<polyline class="st2" points="175.3,74.5 183.8,74.5 183.8,78.1 179.9,78.1 179.9,79.4 183.5,79.4 183.5,82.9 179.9,82.9 
		179.9,84.2 183.9,84.2 183.9,87.8 175.3,87.8 175.3,74.5 	"/>
	<path class="st2" d="M186,83.1l0.2,0.2c0.8,0.7,1.8,1.2,2.9,1.2c0.5,0,1.2-0.2,1.2-0.8c0-0.6-0.6-0.7-1-0.7l-0.9-0.2
		c-1.8-0.3-3.3-1.5-3.3-3.6c0-3.2,2.7-4.9,5.5-4.9c1.5,0,2.8,0.4,4,1.2l-1.3,3.4c-0.8-0.6-1.7-1-2.7-1c-0.4,0-1,0.2-1,0.7
		c0,0.5,0.6,0.6,0.9,0.7l1,0.2c2,0.5,3.4,1.6,3.4,3.8c0,3.2-2.8,4.8-5.5,4.8c-1.6,0-3.5-0.5-4.9-1.2L186,83.1"/>
</g>
</svg>
