<?xml version="1.0" encoding="utf-8"?>
<!-- Generator: Adobe Illustrator 24.0.3, SVG Export Plug-In . SVG Version: 6.00 Build 0)  -->
<svg version="1.1" id="Layer_1" xmlns="http://www.w3.org/2000/svg" xmlns:xlink="http://www.w3.org/1999/xlink" x="0px" y="0px"
	 viewBox="0 0 250.5 64.7" style="enable-background:new 0 0 250.5 64.7;" xml:space="preserve">
<style type="text/css">
	.st0{clip-path:url(#SVGID_2_);fill:#FFFFFF;}
	.st1{clip-path:url(#SVGID_2_);}
	.st2{clip-path:url(#SVGID_4_);fill:#5F7079;}
	.st3{clip-path:url(#SVGID_4_);fill:#004899;}
	.st4{clip-path:url(#SVGID_4_);fill:#FFD600;}
	.st5{clip-path:url(#SVGID_2_);fill:#FFD600;}
	.st6{clip-path:url(#SVGID_2_);fill:#004899;}
	.st7{clip-path:url(#SVGID_6_);fill:#004899;}
	.st8{clip-path:url(#SVGID_8_);fill:#004899;}
	.st9{clip-path:url(#SVGID_8_);fill:#FFD600;}
	.st10{clip-path:url(#SVGID_8_);fill:#FFFFFF;}
	.st11{clip-path:url(#SVGID_8_);fill:#5F7079;}
	.st12{clip-path:url(#SVGID_10_);fill:#004899;}
	.st13{clip-path:url(#SVGID_10_);fill:#FFD600;}
	.st14{clip-path:url(#SVGID_10_);fill:#FFFFFF;}
	.st15{clip-path:url(#SVGID_10_);fill:#5F7079;}
	.st16{clip-path:url(#SVGID_12_);fill:#004899;}
	.st17{clip-path:url(#SVGID_14_);fill:#004899;}
</style>
<g>
	<g>
		<defs>
			<rect id="SVGID_1_" x="-158.3" y="-388.2" width="567.6" height="804.9"/>
		</defs>
		<clipPath id="SVGID_2_">
			<use xlink:href="#SVGID_1_"  style="overflow:visible;"/>
		</clipPath>
		<rect x="141.2" y="-31" class="st0" width="126.9" height="127.3"/>
		<g class="st1">
			<defs>
				<rect id="SVGID_3_" x="141.2" y="-31" width="126.9" height="127.3"/>
			</defs>
			<clipPath id="SVGID_4_">
				<use xlink:href="#SVGID_3_"  style="overflow:visible;"/>
			</clipPath>
			<path class="st2" d="M192.5,36.4l-3.6,3.7c-6.2,6.4-11.6,11.9-18.2,18.6l-1.1,1.1h28.6l0.2-1.2v-0.1h-25.7
				c6.1-6.2,11.3-11.5,17.1-17.5c1.2-1.2,2.4-2.5,3.7-3.7c1.3-1.4,2.5-2.9,3.7-4.5c1-1.3,1.9-2.7,2.6-4.2c1.1-2.4,1.7-5,1.8-7.6
				c0.2-5.8-1.7-11.1-5.5-15c-3.8-4-9.1-6.1-14.9-6.1c-5.2,0-10.2,1.9-13.8,5.3c-4.3,3.9-6.6,9.3-6.9,16.1l1.3,0.2
				c0.3-6.5,2.4-11.7,6.5-15.4c3.4-3.1,8.1-4.9,13-4.9c5.4,0,10.4,2,14,5.7c3.5,3.6,5.3,8.6,5.1,14C200,26.3,198.1,30.2,192.5,36.4"
				/>
			<path class="st3" d="M224.9,25.4c-5.3,0-10.1,2.4-13.9,6.9l-1.1-0.3l5.3-27.6h33.3l0.2-1.3h-34.5l-5.7,29.8l3.1,0.8l0.3-0.3
				c3.6-4.4,8.1-6.7,13.2-6.7c4.3,0,8.6,1.9,11.8,5.1c3.3,3.4,5.1,7.9,5.1,12.7c0,9.5-7.7,17.5-16.9,17.5c-3.8,0-7.7-1.5-10.8-4.1
				c-2.3-2-5.2-5.5-6-11.1h-1.3c0.8,6.2,4,10,6.5,12.1c3.3,2.8,7.5,4.4,11.6,4.4c9.8,0,18.2-8.6,18.2-18.8c0-5.1-1.9-9.9-5.5-13.6
				C234.1,27.4,229.5,25.4,224.9,25.4"/>
			<path class="st2" d="M225,23.2c-5.7,0-9.5,2.2-11.9,3.9l4-20.5h31.1l0.2-1.3H216L211.3,30l1.3-1c2.3-1.7,6-4.5,12.4-4.5
				c5.3,0,10.2,2.1,13.8,6c3.4,3.7,5.4,8.7,5.4,13.7c0,5.4-2.1,10.5-5.9,14.2c-3.6,3.6-8.6,5.7-13.5,5.7c-4,0-8.5-1.6-11.9-4.3
				c-2.8-2.2-6.3-6.3-7.3-13.1h-1.3c0.9,7.3,4.7,11.7,7.7,14.1c3.6,2.9,8.4,4.6,12.7,4.6c5.3,0,10.6-2.2,14.4-6.1
				c4-4,6.2-9.4,6.2-15.1c0-5.4-2.1-10.7-5.7-14.6C235.9,25.5,230.7,23.2,225,23.2"/>
			<path class="st4" d="M224.9,27.7c-4.6,0-8.7,2-12,5.9c-0.3,0.3-0.6,0.7-0.9,1.1c-0.1,0.1-0.2,0.3-0.3,0.4l-1.8-0.5l-2.5-0.7
				l5.8-31.7h35.5l0.1-1.1V0.9h-36.7l-6.2,33.9l3.7,1.1l0,0l1.3,0.4l0,0l1.3,0.4l0.3-0.3c0.2-0.3,0.4-0.5,0.6-0.7
				c0.2-0.2,0.4-0.4,0.5-0.7l0,0c3.1-3.8,7-5.8,11.4-5.8c3.7,0,7.4,1.6,10.2,4.4c2.9,2.9,4.4,6.8,4.4,11c0,8.2-6.7,15.1-14.6,15.1
				c-3.3,0-6.7-1.3-9.3-3.5c-2-1.7-4.4-4.6-5.2-9.3h-1.3c0.8,5.2,3.5,8.4,5.6,10.3c2.9,2.4,6.6,3.8,10.1,3.8
				c8.6,0,15.9-7.5,15.9-16.4c0-4.5-1.7-8.7-4.8-11.9C233,29.5,229,27.7,224.9,27.7"/>
			<path class="st3" d="M165.1,61l-1.1,1.1h33.9l0.2-1.3h-31c7.7-7.8,15.5-15.8,23-23.4l0,0c5-5.5,8.5-10,9-16.3l0,0
				c0.1-5.4-1.8-10.3-5.2-13.8c-3.3-3.3-7.8-5.2-12.7-5.2c-4.6,0-9.1,1.7-12.3,4.7c-3.8,3.4-5.9,8.6-6.2,14.8l1.3,0.2
				c0.2-6,2.2-10.8,5.8-14c3-2.8,7.1-4.4,11.4-4.4c4.5,0,8.7,1.7,11.8,4.8c3.2,3.3,4.9,7.9,4.9,12.9c-0.4,5.9-3.8,10.1-8.6,15.5
				C181.3,44.6,173.1,52.9,165.1,61"/>
			<path class="st4" d="M197.8,63h-34.9v-1.3l21.4-21.9c0.6-0.6,1.1-1.1,1.7-1.7c4.8-4.8,10.2-10.2,10.6-17.4l0,0
				c0-4.7-1.6-8.9-4.6-11.9c-2.9-2.9-6.9-4.5-11.3-4.5c-4.2,0-8,1.6-10.8,4.4c-3.1,3.1-4.8,7.7-4.9,13.2l1.3,0.2
				c0.1-5.2,1.7-9.6,4.6-12.5c2.5-2.6,6.1-4,9.9-4c4,0,7.7,1.5,10.4,4.2c2.7,2.8,4.2,6.7,4.2,11c-0.4,6.7-5.6,11.9-10.2,16.5
				c-0.6,0.6-1.2,1.2-1.7,1.7l-21.7,22.3v3.1h36L197.8,63z"/>
		</g>
		<rect x="2.7" y="1.5" class="st5" width="136.9" height="61.6"/>
		<path class="st6" d="M3.5,2.3h135.3v59.9H3.5V2.3z M1.8,63.9h138.6V0.6H1.8V63.9z"/>
		<polygon class="st6" points="7.8,6.3 23.6,6.3 30.3,19.3 37,6.3 52.8,6.3 52.8,43.5 37.7,43.5 37.7,24.7 30.3,37.2 22.9,24.7 
			22.9,43.5 7.8,43.5 		"/>
		<polygon class="st6" points="89.4,6.3 105.2,6.3 111.9,19.3 118.6,6.3 134.5,6.3 134.5,43.6 119.3,43.6 119.3,24.7 111.9,37.3 
			104.5,24.7 104.5,43.6 89.4,43.6 		"/>
		<polygon class="st6" points="52.8,7.1 67.3,7.1 67.4,22.5 76.5,7.1 92.7,7.1 79.9,24.4 111,62.5 93.7,62.5 67.4,27.9 67.3,42.7 
			52.8,42.7 		"/>
		<path class="st6" d="M112.7,63.3H93.3L68.2,30.4l-0.1,13.1H52V6.3h16.1l0.1,13.2L76,6.3h18.3L81,24.4L112.7,63.3z M94.1,61.6h15
			L78.9,24.5L91,7.9H77L66.6,25.5L94.1,61.6z M53.7,41.8h12.8l0.1-16.4l0,0L66.5,7.9H53.7V41.8z"/>
		<polygon class="st0" points="52.8,7.1 67.3,7.1 67.4,22.5 76.5,7.1 92.7,7.1 79.9,24.4 110.7,62.2 93.5,62.2 67.4,27.9 67.3,42.7 
			52.8,42.7 		"/>
		<g class="st1">
			<defs>
				<rect id="SVGID_5_" x="1.8" y="0.6" width="138.6" height="63.3"/>
			</defs>
			<clipPath id="SVGID_6_">
				<use xlink:href="#SVGID_5_"  style="overflow:visible;"/>
			</clipPath>
			<path class="st7" d="M16.2,52.3v-1.2h0.2c0.4,0,1,0,1,0.6c0,0.6-0.5,0.6-0.9,0.6H16.2z M13.4,57.7h4.1c1.4,0,3-0.6,3-2.4
				c0-1.1-0.6-1.7-1.5-2.1v-0.1c0.7-0.2,1.1-1,1.1-1.7c0-2-1.6-2.4-3.2-2.4h-3.5V57.7z M16.2,54.1h0.3c0.5,0,1.2,0,1.2,0.7
				c0,0.7-0.7,0.7-1.2,0.7h-0.3V54.1z"/>
			<path class="st7" d="M28.7,49v5.1c0,2.5-1.5,3.7-3.8,3.7c-2.3,0-3.8-1.2-3.8-3.7V49h3v4.8c0,0.7,0,1.3,0.8,1.3
				c0.8,0,0.8-0.6,0.8-1.3V49H28.7z"/>
			<rect x="29.6" y="49" class="st7" width="3" height="8.7"/>
			<polygon class="st7" points="33.6,49 36.6,49 36.6,54.9 39.2,54.9 39.2,57.7 33.6,57.7 			"/>
			<path class="st7" d="M42.6,51.7h0.2c1.1,0,1.8,0.5,1.8,1.7c0,1.1-0.8,1.6-1.8,1.6h-0.2V51.7z M39.6,57.7h3.8
				c2.4,0,4.1-1.6,4.1-4.2c0-3.2-2.1-4.5-4.9-4.5h-3V57.7z"/>
			<rect x="48.3" y="49" class="st7" width="3" height="8.7"/>
			<path class="st7" d="M52.2,49h2.9l2.7,4.8h0.1c-0.1-0.7-0.3-1.5-0.3-2.2V49h2.9v8.7h-2.9L55,53.1h-0.1c0.1,0.6,0.2,1.2,0.2,1.7
				v2.8h-2.9V49z"/>
			<path class="st7" d="M70.1,52.6c0,1.4,0,2.6-1,3.7c-0.9,1-2.2,1.5-3.5,1.5c-2.5,0-4.5-1.6-4.5-4.4c0-2.8,2-4.5,4.6-4.5
				c1.4,0,3.4,0.7,4,2.2l-2.8,1.1c-0.2-0.4-0.7-0.7-1.1-0.7c-1.1,0-1.7,1-1.7,2c0,1,0.6,1.9,1.5,1.9c0.5,0,1.1-0.2,1.2-0.8h-1.4
				v-2.1H70.1z"/>
			<path class="st7" d="M75.4,54.6l0.2,0.1c0.5,0.4,1.2,0.8,1.9,0.8c0.3,0,0.8-0.1,0.8-0.5c0-0.4-0.4-0.4-0.7-0.5l-0.6-0.1
				c-1.2-0.2-2.1-0.9-2.1-2.3c0-2.1,1.8-3.2,3.6-3.2c0.9,0,1.8,0.2,2.6,0.8l-0.8,2.2c-0.5-0.4-1.1-0.7-1.7-0.7
				c-0.3,0-0.7,0.1-0.7,0.5c0,0.3,0.4,0.4,0.6,0.4l0.7,0.2c1.3,0.3,2.2,1,2.2,2.5c0,2.1-1.8,3.1-3.6,3.1c-1,0-2.2-0.3-3.2-0.8
				L75.4,54.6z"/>
			<path class="st7" d="M89.4,49v5.1c0,2.5-1.5,3.7-3.8,3.7c-2.3,0-3.8-1.2-3.8-3.7V49h3v4.8c0,0.7,0,1.3,0.8,1.3
				c0.8,0,0.8-0.6,0.8-1.3V49H89.4z"/>
			<path class="st7" d="M93.2,51.4h0.3c0.5,0,1.1,0,1.1,0.7c0,0.7-0.6,0.8-1.1,0.8h-0.3V51.4z M90.3,57.7h2.9v-2.6h1.5
				c1.7,0,2.7-1.1,2.7-2.9c0-2.2-1.4-3.2-3.3-3.2h-3.8V57.7z"/>
			<path class="st7" d="M100.8,51.4h0.3c0.5,0,1.1,0,1.1,0.7c0,0.7-0.6,0.8-1.1,0.8h-0.3V51.4z M97.9,57.7h2.9v-2.6h1.5
				c1.7,0,2.7-1.1,2.7-2.9c0-2.2-1.4-3.2-3.3-3.2h-3.8V57.7z"/>
			<polygon class="st7" points="105.5,49 108.4,49 108.4,54.9 111,54.9 111,57.7 105.5,57.7 			"/>
			<rect x="111.4" y="49" class="st7" width="3" height="8.7"/>
			<polygon class="st7" points="115.4,49 120.9,49 120.9,51.4 118.4,51.4 118.4,52.2 120.7,52.2 120.7,54.5 118.4,54.5 118.4,55.3 
				121,55.3 121,57.7 115.4,57.7 			"/>
			<path class="st7" d="M122.3,54.6l0.2,0.1c0.5,0.4,1.2,0.8,1.9,0.8c0.3,0,0.8-0.1,0.8-0.5c0-0.4-0.4-0.4-0.7-0.5l-0.6-0.1
				c-1.2-0.2-2.2-0.9-2.2-2.3c0-2.1,1.8-3.2,3.6-3.2c0.9,0,1.8,0.2,2.6,0.8l-0.8,2.2c-0.5-0.4-1.1-0.7-1.7-0.7
				c-0.3,0-0.7,0.1-0.7,0.5c0,0.3,0.4,0.4,0.6,0.4l0.7,0.2c1.3,0.3,2.2,1,2.2,2.5c0,2.1-1.8,3.1-3.6,3.1c-1,0-2.2-0.3-3.2-0.8
				L122.3,54.6z"/>
		</g>
	</g>
</g>
</svg>
