<?xml version="1.0" encoding="utf-8"?>
<!-- Generator: Adobe Illustrator 24.0.3, SVG Export Plug-In . SVG Version: 6.00 Build 0)  -->
<svg version="1.1" id="Layer_1" xmlns="http://www.w3.org/2000/svg" xmlns:xlink="http://www.w3.org/1999/xlink" x="0px" y="0px"
	 viewBox="0 0 250.5 64.7" style="enable-background:new 0 0 250.5 64.7;" xml:space="preserve">
<style type="text/css">
	.st0{fill:#12549F;}
	.st1{fill:#FED605;}
	.st2{fill:#607278;}
	.st3{fill:#FFD601;}
	.st4{clip-path:url(#SVGID_2_);fill:none;stroke:#12549F;stroke-width:2.5996;}
	.st5{clip-path:url(#SVGID_4_);fill:none;stroke:#12549F;stroke-width:2.5996;}
	.st6{clip-path:url(#SVGID_6_);fill:none;stroke:#12549F;stroke-width:2.5996;}
	.st7{fill:#FFFFFF;}
</style>
<g>
	<path class="st0" d="M234,4.5c-4.9,0-9.8,0-14.8,0c-0.4,0-0.6,0.2-0.6,0.5c-0.6,3.2-1.2,6.5-1.8,9.7c-0.6,3.1-1.1,6.1-1.7,9.2
		c-0.4,2.2-0.8,4.5-1.2,6.7c0,0.2-0.3,0.5,0.1,0.5c0.3,0.1,0.7,0.4,1.1,0c0.6-0.7,1.2-1.4,1.9-2c1.3-1.2,2.8-2.2,4.4-3
		c1.8-0.9,3.7-1.2,5.6-1.4c2-0.1,4,0.2,5.9,0.9c2.2,0.8,4.2,2.1,5.8,3.8c1,0.9,1.8,2,2.5,3.2c1.4,2.3,2.4,4.7,2.8,7.4
		c0.6,3.5,0.2,6.9-1.1,10.2c-0.7,1.7-1.6,3.3-2.8,4.8c-1.2,1.4-2.5,2.6-4,3.7c-1.3,0.9-2.6,1.4-4.1,1.9c-2.6,1-5.3,1-8,0.3
		c-1.6-0.4-3.1-1-4.5-1.8c-1.6-1-3.1-2.2-4.4-3.7c-2-2.4-3.3-5.1-3.9-8.1c-0.1-0.5-0.2-1-0.3-1.5c-0.1-0.3,0-0.5,0.4-0.5
		c0.7,0,0.7,0,0.9,0.7c0.4,2.6,1.4,5,2.9,7.2c0.9,1.3,2,2.4,3.2,3.4c1,0.8,2.2,1.5,3.3,2c3.7,1.8,7.5,1.8,11.3,0.3
		c1.1-0.4,2.1-1,3.1-1.7c1.4-1.1,2.6-2.2,3.6-3.6c1.9-2.7,3.1-5.6,3.3-8.9c0.3-3.3-0.2-6.5-1.7-9.5c-0.6-1.3-1.4-2.5-2.3-3.6
		c-1.3-1.5-2.7-2.7-4.4-3.8c-1.8-1.1-3.8-1.7-5.9-1.9c-0.4,0-0.8-0.2-1.2-0.2c-2.3,0.2-4.5,0.6-6.5,1.7c-1.7,0.9-3.2,2.1-4.5,3.6
		c-0.4,0.4-0.7,0.9-1.1,1.3c-0.1,0.2-0.3,0.3-0.5,0.2c-0.7-0.2-1.5-0.4-2.2-0.6c-0.3-0.1-0.3-0.3-0.2-0.5c0.2-1.1,0.4-2.3,0.6-3.4
		c0.5-2.7,1-5.4,1.4-8c0.3-1.6,0.6-3.3,0.9-4.9c0.5-2.7,1-5.4,1.5-8.1c0.2-1.2,0.5-2.5,0.7-3.7c0-0.3,0.1-0.3,0.4-0.3
		c0.1,0,0.2,0,0.2,0c10.2,0,20.4,0,30.6,0c0.2,0,0.6-0.2,0.6,0.3c0,0.9-0.1,1-0.6,1C243.9,4.5,238.9,4.5,234,4.5z"/>
	<path class="st1" d="M233.2,2.3c-5.3,0-10.6,0-15.9,0c-0.4,0-0.5,0.1-0.6,0.5c-0.6,3.7-1.3,7.3-1.9,11c-0.5,2.7-1,5.5-1.4,8.2
		c-0.6,3.3-1.1,6.6-1.7,9.9c-0.1,0.3-0.3,0.7-0.1,1c0.2,0.3,0.6,0.2,0.9,0.3c0.8,0.4,1.7,0.5,2.6,0.8c0.3,0.1,0.5,0,0.7-0.2
		c0.9-1.2,1.8-2.3,3-3.3c1.2-1.1,2.6-1.9,4.2-2.5c2.9-1.2,5.8-1.2,8.7-0.3c1.3,0.4,2.6,1,3.7,1.8c1.4,1,2.7,2.2,3.7,3.6
		c1.6,2.3,2.7,4.8,3,7.6c0.5,3.4,0,6.6-1.5,9.7c-0.8,1.7-2,3.3-3.4,4.6c-0.7,0.7-1.5,1.2-2.4,1.8c-1.5,1.1-3.3,1.5-5,2
		c-1.2,0.3-2.4,0.4-3.6,0.1c-1.8-0.3-3.6-0.7-5.1-1.7c-0.8-0.5-1.7-1-2.5-1.7c-2.4-2.1-4-4.7-4.9-7.8c-0.2-0.6-0.3-1.3-0.5-2
		c-0.1-0.3,0-0.4,0.3-0.4c0.1,0,0.1,0,0.2,0c0.5-0.1,0.6,0.1,0.7,0.6c0.3,2.1,1.2,4.1,2.4,5.8c0.8,1.2,1.8,2.3,3,3.2
		c1.1,0.9,2.3,1.5,3.6,2c2.6,1.1,5.2,1.1,7.8,0.3c1.3-0.4,2.6-1,3.7-1.8c1.9-1.4,3.5-3.2,4.5-5.4c1.7-3.5,2.1-7.2,1.1-11.1
		c-0.5-2-1.4-3.8-2.7-5.5c-1.2-1.5-2.6-2.8-4.4-3.7c-3.6-2-7.3-2.1-11-0.4c-2,0.9-3.7,2.3-5,4.1c-0.5,0.6-1,1.2-1.4,1.8
		c-0.1,0.2-0.2,0.2-0.4,0.2c-1.7-0.5-3.5-1.1-5.2-1.6c-0.4-0.1-0.2-0.4-0.2-0.6c0.2-1.1,0.4-2.2,0.6-3.3c0.5-2.8,1-5.6,1.5-8.4
		c0.5-2.7,1-5.5,1.4-8.2c0.6-3.3,1.1-6.6,1.7-9.9c0.1-0.7,0.3-1.4,0.4-2.1c0-0.2,0.1-0.4,0.4-0.3c0.1,0,0.2,0,0.3,0
		c10.8,0,21.7,0,32.5,0c0.7,0,0.6,0,0.6,0.7c0,0.5-0.2,0.6-0.7,0.6C243.7,2.3,238.5,2.3,233.2,2.3z"/>
	<path class="st2" d="M215.2,29.2c0.4-2.2,0.8-4.3,1.2-6.4c1-5.7,2.1-11.3,3.1-17c0.1-0.3,0.2-0.5,0.5-0.5c9.6,0,19.2,0,28.8,0
		c0.4,0,0.4,0.1,0.4,0.5c-0.1,0.9,0,0.7-0.8,0.7c-9.1,0-18.1,0-27.2,0c-0.5,0-0.7,0.2-0.7,0.6c-0.9,5.3-1.9,10.6-2.9,15.8
		c-0.2,1-0.4,2-0.6,3c0,0.1-0.1,0.3,0,0.4c0.1,0.1,0.2,0,0.3-0.1c0.9-0.8,1.9-1.3,3-1.8c4.7-2.3,9.4-2.2,14.2-0.5
		c2.1,0.8,4,2.1,5.7,3.7c1.1,1.1,2.2,2.3,3,3.6c2,3.2,3.2,6.6,3.4,10.4c0.2,2.7-0.2,5.3-1,7.9c-0.6,2-1.5,3.8-2.7,5.5
		c-0.9,1.3-1.9,2.5-3.1,3.6c-1.9,1.7-4,2.9-6.3,3.8c-3.6,1.4-7.3,1.4-10.9,0.3c-1.3-0.4-2.7-0.9-3.9-1.7c-1.7-1-3.2-2.2-4.5-3.6
		c-2.6-2.9-4.2-6.2-5-10c-0.1-0.5-0.2-1-0.3-1.6c-0.1-0.3,0-0.4,0.3-0.4c0.1,0,0.2,0,0.2,0c0.4-0.1,0.5,0.1,0.6,0.5
		c0.4,2.6,1.2,5.1,2.5,7.4c0.7,1.2,1.6,2.4,2.6,3.4c1.6,1.7,3.4,2.9,5.5,3.9c4.4,2.1,8.9,2.1,13.4,0.3c1.2-0.5,2.3-1.1,3.3-1.9
		c1.4-1.1,2.7-2.2,3.8-3.6c2.6-3.4,4-7.2,4.2-11.4c0.2-3.5-0.5-6.8-2-10c-0.7-1.5-1.7-3-2.8-4.3c-1.2-1.4-2.6-2.6-4.2-3.6
		c-1.6-1-3.4-1.6-5.3-2.1c-1.9-0.5-3.9-0.5-5.8-0.2c-2,0.3-3.9,0.8-5.6,1.8c-1.6,0.9-3,2-4.4,3.1C215.3,29,215.3,29.1,215.2,29.2z"
		/>
	<path class="st2" d="M176.9,58.1c0.7-0.7,1.3-1.4,2-2.1c1.3-1.4,2.6-2.8,3.9-4.2c0.9-0.9,1.7-1.8,2.5-2.7c1.4-1.5,2.9-3,4.3-4.6
		c1-1.1,2.1-2.2,3.1-3.4c1.2-1.3,2.4-2.6,3.6-3.9c1.1-1.2,2.1-2.4,3.2-3.6c1.4-1.7,2.7-3.6,3.7-5.6c1.6-3.2,2-6.5,1.8-10
		c-0.2-2.4-0.7-4.7-1.7-6.8c-0.5-1-1.1-2-1.8-3c-1.2-1.6-2.6-3-4.3-4.1c-1.2-0.8-2.4-1.3-3.7-1.8c-3.6-1.4-7.2-1.4-10.8-0.4
		c-1.5,0.4-3,1-4.3,1.9c-0.9,0.6-1.8,1.2-2.6,1.9c-2.4,2.3-4.1,4.9-5.1,8.1c-0.7,2.2-1.1,4.4-1.2,6.7c0,0.4-0.1,0.5-0.5,0.4
		c-0.7-0.1-0.7-0.1-0.6-0.8c0.2-2.6,0.6-5.2,1.6-7.6c0.6-1.6,1.4-3.1,2.4-4.5c1-1.4,2.1-2.6,3.4-3.7c0.9-0.8,1.9-1.3,2.9-1.9
		c1.5-0.9,3.2-1.3,4.9-1.8c2.2-0.6,4.5-0.7,6.7-0.3c1.9,0.3,3.8,0.8,5.5,1.7c1,0.6,2.1,1.1,3,1.8c3.7,3,6,6.8,7,11.4
		c0.6,3.1,0.6,6.3-0.1,9.4c-0.4,1.7-1.1,3.3-1.9,4.8c-1.1,1.9-2.3,3.7-3.7,5.4c-1,1.2-2.1,2.4-3.2,3.5c-1.8,1.9-3.6,3.9-5.4,5.8
		c-1.1,1.2-2.1,2.3-3.2,3.5c-1.8,1.9-3.5,3.8-5.3,5.7c-1,1-1.9,2.1-2.9,3.1c-0.1,0.1-0.3,0.2-0.2,0.3c0.1,0.2,0.3,0.1,0.4,0.1
		c7.5,0,15,0,22.5,0c0.2,0,0.5-0.2,0.5,0.2c0,0.9-0.1,1-0.6,1c-8.4,0-16.9,0-25.3,0C177.3,58.1,177.1,58.1,176.9,58.1z"/>
	<path class="st1" d="M186.1,62.5c-5.3,0-10.7,0-16,0c-0.4,0-0.6-0.1-0.5-0.5c0-0.5,0.1-0.9,0-1.4c-0.1-0.8,0.3-1.4,0.8-1.9
		c1-1,2-2,2.9-3.1c1.1-1.2,2.2-2.4,3.3-3.6c1.1-1.2,2.3-2.4,3.4-3.6c1.1-1.2,2.2-2.4,3.4-3.6c1.2-1.2,2.3-2.5,3.5-3.8
		c1.1-1.2,2.2-2.4,3.3-3.6c1.2-1.2,2.3-2.4,3.5-3.7c1-1.1,2-2.3,2.9-3.6c1.2-1.7,2.3-3.5,3-5.4c0.9-2.4,1.1-4.9,0.7-7.5
		c-0.4-2.4-1.3-4.6-2.7-6.5c-0.8-1-1.8-1.9-2.8-2.7C193.4,7,192,6.5,190.6,6c-2-0.7-4.1-0.7-6.2-0.2c-1.4,0.3-2.8,0.8-4.1,1.6
		c-2.2,1.5-3.8,3.4-4.9,5.8c-1.1,2.5-1.6,5.2-1.7,7.9c0,0.3-0.1,0.4-0.3,0.3c-0.2,0-0.3,0-0.5-0.1c-0.3,0-0.3-0.1-0.3-0.4
		c0.1-2.3,0.4-4.5,1.2-6.7c0.6-1.7,1.3-3.2,2.4-4.6c1.1-1.5,2.5-2.7,4.1-3.7c2.7-1.6,5.7-1.9,8.7-1.6c1.4,0.2,2.8,0.5,4.1,1.1
		c1.9,0.9,3.6,2.2,4.9,3.8c1.7,2.1,2.8,4.5,3.3,7.2c0.6,3.1,0.3,6.1-0.9,9c-0.8,2-1.9,3.8-3.2,5.5c-1,1.3-2,2.5-3.1,3.7
		c-1.2,1.3-2.3,2.5-3.5,3.7c-1.2,1.2-2.3,2.5-3.5,3.7c-1.1,1.2-2.2,2.4-3.3,3.6c-1.7,1.8-3.4,3.7-5.1,5.5c-1.1,1.2-2.2,2.4-3.3,3.5
		c-1.1,1.2-2.3,2.5-3.4,3.7c-0.2,0.3-0.4,0.6-0.7,0.8c-0.5,0.4-0.6,0.9-0.6,1.5c0,0.2,0.1,0.4,0.3,0.3c0.1,0,0.3,0,0.4,0
		c10.3,0,20.6,0,30.8,0c0.2,0,0.5-0.2,0.5,0.2c0,0.9-0.1,0.9-0.6,0.9C196.8,62.5,191.4,62.5,186.1,62.5z"/>
	<path class="st0" d="M174.6,59.2c0.3,0,0.4,0,0.6,0c9.1,0,18.1,0,27.2,0c0.2,0,0.5-0.2,0.5,0.3c0,0.7-0.1,0.8-0.6,0.8
		c-10.1,0-20.2,0-30.3,0c-0.1,0-0.2,0-0.3,0c0-0.2,0.1-0.2,0.2-0.3c1.4-1.5,2.8-2.9,4.2-4.4c1.1-1.2,2.2-2.3,3.3-3.5
		c1.2-1.3,2.4-2.6,3.6-3.9c1.1-1.2,2.2-2.4,3.3-3.6c1.8-1.9,3.5-3.8,5.3-5.7c1.1-1.1,2.1-2.2,3.1-3.4c1.6-1.8,3.1-3.7,4.5-5.7
		c1.1-1.6,2-3.3,2.6-5.2c0.8-2.4,0.9-4.8,0.6-7.2c-0.3-2.2-1-4.3-2.1-6.3C199.8,10,199,9,198.1,8c-1.8-1.8-3.8-3.1-6.3-3.9
		c-2.8-0.9-5.5-0.9-8.3-0.2c-1.5,0.4-2.9,0.9-4.2,1.8c-1.6,1-3,2.2-4.1,3.7c-1.9,2.5-2.9,5.3-3.4,8.4c-0.2,1-0.3,2-0.3,3.1
		c0,0.3-0.1,0.4-0.4,0.4c-0.8-0.1-0.8-0.1-0.7-0.8c0.2-2.3,0.5-4.6,1.3-6.8c0.8-2.1,1.8-4,3.3-5.7c1.2-1.4,2.7-2.6,4.3-3.5
		c2.8-1.6,5.9-2.2,9.1-2.1c2.1,0.1,4.2,0.6,6.1,1.5c1.9,0.9,3.5,2.2,4.9,3.7c1.4,1.6,2.5,3.4,3.2,5.3c1,2.7,1.5,5.5,1.3,8.3
		c-0.2,2.2-0.8,4.3-1.8,6.3c-1,2-2.3,3.9-3.7,5.7c-1,1.3-2,2.5-3.1,3.7c-1.1,1.2-2.2,2.4-3.3,3.6c-1.7,1.9-3.4,3.8-5.2,5.6
		c-1.1,1.2-2.2,2.4-3.3,3.6c-1.1,1.2-2.3,2.4-3.4,3.7c-1.7,1.8-3.3,3.6-5.1,5.4C174.8,58.8,174.6,58.9,174.6,59.2z"/>
</g>
<g>
	<rect x="0.9" y="0.9" class="st3" width="139.5" height="62.6"/>
	<g>
		<g>
			<defs>
				<rect id="SVGID_1_" width="141.2" height="64.3"/>
			</defs>
			<clipPath id="SVGID_2_">
				<use xlink:href="#SVGID_1_"  style="overflow:visible;"/>
			</clipPath>
			<rect x="0.9" y="0.9" class="st4" width="139.5" height="62.6"/>
		</g>
		<g>
			<defs>
				<rect id="SVGID_3_" width="141.2" height="64.3"/>
			</defs>
			<clipPath id="SVGID_4_">
				<use xlink:href="#SVGID_3_"  style="overflow:visible;"/>
			</clipPath>
			<path class="st5" d="M140.3,63.4"/>
		</g>
	</g>
	<polyline class="st0" points="6.7,6.2 22.6,6.2 29.3,19.3 36,6.2 51.9,6.2 51.9,43.5 36.8,43.5 36.8,24.7 29.3,37.2 21.8,24.7 
		21.8,43.2 6.7,43.2 6.7,6.2 	"/>
	<polyline class="st0" points="89.1,6.2 105,6.2 111.8,19.3 118.4,6.2 134.4,6.2 134.4,43.2 119.2,43.2 119.2,24.7 111.8,37.2 
		104.3,24.7 104.3,43.5 89.1,43.5 89.1,6.2 	"/>
	<polyline class="st0" points="51.9,6.8 66.7,6.8 66.8,22.4 76.1,6.8 92.6,6.8 79.5,24.4 111.1,63 93.6,63 66.8,27.9 66.7,43 
		51.9,43 51.9,6.8 	"/>
	<g>
		<g>
			<defs>
				<rect id="SVGID_5_" width="141.2" height="64.3"/>
			</defs>
			<clipPath id="SVGID_6_">
				<use xlink:href="#SVGID_5_"  style="overflow:visible;"/>
			</clipPath>
			<polygon class="st6" points="51.9,6.8 66.7,6.8 66.8,22.4 76.1,6.8 92.6,6.8 79.5,24.4 111.1,63 93.6,63 66.8,27.9 66.7,43 
				51.9,43 			"/>
		</g>
	</g>
	<polyline class="st7" points="51.9,6.8 66.7,6.8 66.8,22.4 76.1,6.8 92.6,6.8 79.5,24.4 111.1,63 93.6,63 66.8,27.9 66.7,43 
		51.9,43 51.9,6.8 	"/>
	<path class="st0" d="M14.6,52.5v-1.3h0.2c0.5,0,1-0.1,1,0.6c0,0.6-0.5,0.7-0.9,0.7H14.6 M11.8,57.9H16c1.5,0,3.1-0.6,3.1-2.4
		c0-1.1-0.6-1.8-1.5-2.1v-0.1c0.7-0.3,1.1-1,1.1-1.8c0-2-1.6-2.4-3.3-2.4h-3.6C11.8,49.1,11.8,57.9,11.8,57.9z M14.6,54.4H15
		c0.5,0,1.3,0,1.3,0.7s-0.7,0.7-1.2,0.7h-0.3L14.6,54.4L14.6,54.4z"/>
	<path class="st0" d="M27.3,49.2v5.2c0,2.6-1.5,3.8-3.9,3.8s-3.9-1.2-3.9-3.8v-5.2h3v4.9c0,0.7,0,1.3,0.9,1.3c0.8,0,0.9-0.6,0.9-1.3
		v-4.9H27.3"/>
	<rect x="28.3" y="49.2" class="st0" width="3" height="8.8"/>
	<polyline class="st0" points="32.4,49.2 35.4,49.2 35.4,55.1 38,55.1 38,57.9 32.4,57.9 32.4,49.2 	"/>
	<path class="st0" d="M41.5,51.9h0.2c1.1,0,1.8,0.5,1.8,1.8c0,1.2-0.8,1.6-1.8,1.6h-0.2V51.9 M38.5,57.9h3.9c2.4,0,4.2-1.6,4.2-4.3
		c0-3.2-2.2-4.6-4.9-4.6h-3.1L38.5,57.9L38.5,57.9z"/>
	<rect x="47.3" y="49.2" class="st0" width="3" height="8.8"/>
	<path class="st0" d="M51.3,49.2h2.9l2.7,4.9H57c-0.1-0.7-0.3-1.5-0.3-2.2v-2.6h2.9V58h-2.9L54,53.4H54c0.1,0.6,0.2,1.2,0.2,1.8V58
		h-2.9L51.3,49.2"/>
	<path class="st0" d="M69.5,52.8c0,1.5,0,2.6-1,3.8c-0.9,1-2.2,1.6-3.6,1.6c-2.6,0-4.6-1.6-4.6-4.5c0-2.9,2-4.6,4.6-4.6
		c1.5,0,3.4,0.8,4.1,2.2l-2.8,1.1c-0.3-0.5-0.7-0.7-1.2-0.7c-1.1,0-1.7,1-1.7,2c0,1,0.6,1.9,1.6,1.9c0.5,0,1.1-0.3,1.3-0.8h-1.4
		v-2.1H69.5"/>
	<path class="st0" d="M75,54.8l0.1,0.1c0.5,0.5,1.2,0.8,1.9,0.8c0.3,0,0.8-0.1,0.8-0.5c0-0.4-0.4-0.5-0.7-0.5l-0.6-0.1
		c-1.2-0.2-2.2-1-2.2-2.4c0-2.1,1.8-3.2,3.6-3.2c1,0,1.8,0.3,2.6,0.8l-0.8,2.2c-0.5-0.4-1.1-0.7-1.8-0.7c-0.3,0-0.7,0.1-0.7,0.5
		s0.4,0.4,0.6,0.5l0.7,0.1c1.3,0.3,2.2,1.1,2.2,2.5c0,2.1-1.8,3.2-3.6,3.2c-1.1,0-2.3-0.3-3.2-0.8L75,54.8"/>
	<path class="st0" d="M89.1,49.2v5.2c0,2.6-1.5,3.8-3.9,3.8s-3.9-1.2-3.9-3.8v-5.2h3v4.9c0,0.7,0,1.3,0.9,1.3c0.8,0,0.9-0.6,0.9-1.3
		v-4.9H89.1"/>
	<path class="st0" d="M93,51.5h0.3c0.5,0,1.1,0.1,1.1,0.7c0,0.7-0.6,0.8-1.1,0.8H93V51.5 M90.1,57.9h3v-2.6h1.6
		c1.7,0,2.8-1.1,2.8-2.9c0-2.2-1.5-3.2-3.4-3.2h-3.9V57.9z"/>
	<path class="st0" d="M100.8,51.5h0.3c0.5,0,1.1,0.1,1.1,0.7c0,0.7-0.6,0.8-1.1,0.8h-0.3L100.8,51.5 M97.8,57.9h3v-2.6h1.6
		c1.7,0,2.8-1.1,2.8-2.9c0-2.2-1.5-3.2-3.4-3.2h-3.9V57.9z"/>
	<polyline class="st0" points="105.5,49.2 108.6,49.2 108.6,55.1 111.1,55.1 111.1,57.9 105.5,57.9 105.5,49.2 	"/>
	<rect x="111.6" y="49.2" class="st0" width="3" height="8.8"/>
	<polyline class="st0" points="115.7,49.2 121.3,49.2 121.3,51.5 118.7,51.5 118.7,52.4 121.1,52.4 121.1,54.7 118.7,54.7 
		118.7,55.6 121.3,55.6 121.3,57.9 115.7,57.9 115.7,49.2 	"/>
	<path class="st0" d="M122.7,54.8l0.1,0.1c0.5,0.5,1.2,0.8,1.9,0.8c0.3,0,0.8-0.1,0.8-0.5c0-0.4-0.4-0.5-0.7-0.5l-0.6-0.1
		c-1.2-0.2-2.2-1-2.2-2.4c0-2.1,1.8-3.2,3.6-3.2c1,0,1.8,0.3,2.6,0.8l-0.9,2.2c-0.5-0.4-1.1-0.7-1.8-0.7c-0.3,0-0.7,0.1-0.7,0.5
		s0.4,0.4,0.6,0.5l0.7,0.1c1.3,0.3,2.2,1.1,2.2,2.5c0,2.1-1.8,3.2-3.6,3.2c-1.1,0-2.3-0.3-3.2-0.8L122.7,54.8"/>
</g>
</svg>
